<?xml version="1.0" encoding="UTF-8" standalone="no"?>
<!-- Created with Inkscape (http://www.inkscape.org/) -->

<svg
   width="508"
   height="110"
   viewBox="0 0 508 110"
   version="1.1"
   id="svg1"
   xml:space="preserve"
   inkscape:version="1.4.2 (f4327f4, 2025-05-13)"
   sodipodi:docname="banner.svg"
   inkscape:export-filename="banner.png"
   inkscape:export-xdpi="96"
   inkscape:export-ydpi="96"
   xmlns:inkscape="http://www.inkscape.org/namespaces/inkscape"
   xmlns:sodipodi="http://sodipodi.sourceforge.net/DTD/sodipodi-0.dtd"
   xmlns="http://www.w3.org/2000/svg"
   xmlns:svg="http://www.w3.org/2000/svg"><sodipodi:namedview
     id="namedview1"
     pagecolor="#ffffff"
     bordercolor="#000000"
     borderopacity="0.25"
     inkscape:showpageshadow="2"
     inkscape:pageopacity="0.0"
     inkscape:pagecheckerboard="0"
     inkscape:deskcolor="#d1d1d1"
     inkscape:document-units="px"
     inkscape:zoom="0.98976535"
     inkscape:cx="401.61034"
     inkscape:cy="137.91148"
     inkscape:window-width="1920"
     inkscape:window-height="1009"
     inkscape:window-x="-8"
     inkscape:window-y="-8"
     inkscape:window-maximized="1"
     inkscape:current-layer="layer1"><inkscape:page
       x="0"
       y="0"
       width="508"
       height="110"
       id="page1"
       margin="0"
       bleed="0" /></sodipodi:namedview><defs
     id="defs1"><clipPath
       clipPathUnits="userSpaceOnUse"
       id="clipPath3"><path
         d="M 2.88,4.32 H 37.44 V 32.4 H 2.88 Z"
         id="path3" /></clipPath><clipPath
       clipPathUnits="userSpaceOnUse"
       id="clipPath5"><path
         d="M 2.88,4.32 H 37.44 V 32.4 H 2.88 Z"
         id="path5" /></clipPath><clipPath
       clipPathUnits="userSpaceOnUse"
       id="clipPath7"><path
         d="M 37.44,4.32 H 72 V 32.4 H 37.44 Z"
         id="path7" /></clipPath><clipPath
       clipPathUnits="userSpaceOnUse"
       id="clipPath9"><path
         d="M 37.44,4.32 H 72 V 32.4 H 37.44 Z"
         id="path9" /></clipPath><clipPath
       clipPathUnits="userSpaceOnUse"
       id="clipPath11"><path
         d="m 72,4.32 h 34.56 V 32.4 H 72 Z"
         id="path11" /></clipPath><clipPath
       clipPathUnits="userSpaceOnUse"
       id="clipPath13"><path
         d="m 72,4.32 h 34.56 V 32.4 H 72 Z"
         id="path13" /></clipPath><clipPath
       clipPathUnits="userSpaceOnUse"
       id="clipPath15"><path
         d="m 106.56,4.32 h 34.56 V 32.4 h -34.56 z"
         id="path15" /></clipPath><clipPath
       clipPathUnits="userSpaceOnUse"
       id="clipPath17"><path
         d="m 106.56,4.32 h 34.56 V 32.4 h -34.56 z"
         id="path17" /></clipPath><clipPath
       clipPathUnits="userSpaceOnUse"
       id="clipPath9-2"><path
         d="M 37.44,4.32 H 72 V 32.4 H 37.44 Z"
         id="path9-4" /></clipPath></defs><g
     inkscape:label="Laag 1"
     inkscape:groupmode="layer"
     id="layer1"
     transform="translate(-91.935089,-97.206863)"><path
       id="path2"
       style="fill:#b44446;stroke:none;stroke-width:13.952;stroke-linecap:round;stroke-linejoin:round;stroke-dasharray:none"
       d="m 146.91733,101.20687 a 50.982593,50.982593 0 0 0 -48.90195,36.5674 c 4.41324,-0.46194 8.83325,-0.98422 13.26282,-1.4779 2.55853,-0.577 5.46494,0.74314 6.51078,3.19068 0.64097,1.86509 0.76686,3.86074 1.09445,5.79659 0.2118,2.16629 0.87796,4.24655 1.5498,6.2855 0.96279,1.85349 1.77609,3.78794 2.55638,5.72789 1.70604,1.83819 2.9192,4.04379 4.13495,6.21839 0.36431,0.51432 0.53532,1.24922 1.09125,1.61052 1.3866,0.96211 2.45322,2.30459 3.69237,3.43993 0.37584,-2.51728 0.84221,-5.02057 1.25582,-7.53173 0.44755,-1.96897 0.36301,-4.13479 1.50188,-5.88447 0.7023,-2.14391 1.22138,-4.3565 1.78627,-6.54433 0.31695,-1.82876 1.10014,-3.72859 2.74171,-4.74528 1.45008,-2.86733 2.22835,-6.0152 3.4607,-8.97609 0.64329,-2.29913 2.7742,-4.11583 5.17827,-4.24679 2.42843,-3.66688 4.81553,-7.40087 7.21378,-11.10107 0.98794,-1.59933 2.70347,-2.77325 4.61587,-2.8264 2.40535,-0.12406 4.77423,1.49816 5.4994,3.79942 0.4949,2.42068 0.62747,4.95427 0.89794,7.37196 0.12584,2.62797 1.01786,5.11876 1.61531,7.65795 0.70035,1.17739 1.34312,2.40971 1.89012,3.6732 1.36202,1.10518 2.44512,2.56622 3.56295,3.93043 0.69091,-0.0308 1.38474,0.0405 2.06109,0.18055 2.37319,0.57606 4.79133,1.34584 6.68493,2.95421 1.10599,-0.96478 2.41174,-1.97096 3.96079,-2.09623 1.48035,-0.79342 3.22542,-1.41577 4.90346,-0.90751 1.16657,-0.18342 2.33533,-0.55328 3.53578,-0.58797 0.93657,-0.0878 1.87097,0.005 2.77527,0.23487 a 50.982593,50.982593 0 0 0 -50.13219,-41.71372 z m 9.78773,36.19034 c -1.29173,1.96106 -2.91403,3.78327 -4.99453,4.92423 -0.57472,1.62253 -1.0817,3.31124 -1.81982,4.89546 -0.95883,1.75772 -1.56297,3.74351 -2.91107,5.26455 -0.38752,0.95706 -0.55586,2.02061 -0.86118,3.01812 -0.58019,1.73003 -0.79759,3.58728 -1.6313,5.2262 -0.58024,3.05794 -1.04993,6.15421 -1.58814,9.22693 -0.40045,3.32668 -0.55063,6.68061 -0.81805,10.02101 -0.19125,2.09667 -0.0196,4.45401 -1.45554,6.17845 -1.84493,2.43507 -5.78418,2.72875 -7.99987,0.64389 -1.99078,-2.24022 -3.80233,-4.6393 -5.65599,-6.9949 -1.10508,-1.5645 -2.39777,-2.98 -3.79462,-4.28832 -0.80445,-0.33777 -1.66387,-0.66877 -2.32311,-1.27979 -1.29004,-1.299 -2.0477,-3.0131 -2.97019,-4.57272 -0.76873,-1.20158 -1.36272,-2.50744 -2.16494,-3.68598 -0.71081,-0.49809 -1.35959,-1.11427 -1.80225,-1.87415 -1.07536,-1.93748 -1.67457,-4.09485 -2.66342,-6.07619 -0.82004,-1.41712 -1.41956,-2.94763 -1.839,-4.52959 -0.60628,-1.85301 -1.12415,-3.73675 -1.36287,-5.67676 -1.93752,0.21839 -3.87285,0.444 -5.81097,0.65667 -2.05692,0.24406 -4.13878,0.43777 -6.21041,0.6311 a 50.982593,50.982593 0 0 0 -0.0927,3.08524 50.982593,50.982593 0 0 0 50.98221,50.9822 50.982593,50.982593 0 0 0 50.93426,-48.76454 c -1.09024,-0.0772 -2.16964,-0.24283 -3.22424,-0.58158 -1.31077,0.23632 -2.62333,0.63785 -3.97516,0.60235 -0.60897,-0.1556 -1.05494,0.39583 -1.64088,0.47453 -0.17936,0.37754 -0.30731,0.79761 -0.50968,1.17274 -1.05548,2.32614 -3.8385,3.64008 -6.30786,3.01812 -1.56248,-0.44165 -2.89132,-1.43552 -4.3155,-2.18411 -1.10855,-0.53118 -2.0868,-1.26756 -3.03569,-2.03871 -1.98903,1.39656 -4.89423,1.2476 -6.73287,-0.34031 -1.35015,-1.36321 -2.37857,-3.00982 -3.62047,-4.47048 -0.50818,-0.31235 -1.17885,-0.43147 -1.68242,-0.81325 -1.94204,-1.18467 -2.48967,-3.53501 -3.33448,-5.48662 -0.20973,-0.79585 -0.94219,-1.22516 -1.35648,-1.89652 -0.70343,-1.39806 -0.99921,-2.96481 -1.4108,-4.46727 z" /><text
       xml:space="preserve"
       style="font-style:normal;font-variant:normal;font-weight:normal;font-stretch:normal;font-size:96.0903px;font-family:PASTI;-inkscape-font-specification:PASTI;text-align:center;letter-spacing:0px;word-spacing:0px;writing-mode:lr-tb;direction:ltr;text-anchor:middle;fill:#0080c4;fill-opacity:1;stroke-width:2.20001;stroke-linecap:round;stroke-linejoin:round"
       x="402.76318"
       y="190.59024"
       id="text1"><tspan
         sodipodi:role="line"
         id="tspan1"
         x="402.76318"
         y="190.59024"
         style="font-size:96.0903px;fill:#0080c4;fill-opacity:1;stroke-width:2.20001">SOUNDLET</tspan></text><text
       xml:space="preserve"
       style="font-style:normal;font-variant:normal;font-weight:normal;font-stretch:normal;font-size:48px;font-family:PASTI;-inkscape-font-specification:PASTI;text-align:center;letter-spacing:0px;word-spacing:0px;writing-mode:lr-tb;direction:ltr;text-anchor:middle;fill:#0080c4;fill-opacity:1;stroke:none;stroke-width:1.552;stroke-linecap:round;stroke-linejoin:round;stroke-dasharray:none"
       x="198.02673"
       y="208.13014"
       id="text4"><tspan
         sodipodi:role="line"
         id="tspan4"
         x="198.02673"
         y="208.13014" /></text></g></svg>
