<?xml version="1.0" encoding="UTF-8" standalone="no"?>
<!-- Created with Inkscape (http://www.inkscape.org/) -->

<svg
   width="1024"
   height="1024"
   viewBox="0 0 270.93333 270.93333"
   version="1.1"
   id="svg1"
   inkscape:version="1.4.2 (f4327f4, 2025-05-13)"
   sodipodi:docname="icon.svg"
   inkscape:export-filename="icon.png"
   inkscape:export-xdpi="96"
   inkscape:export-ydpi="96"
   xmlns:inkscape="http://www.inkscape.org/namespaces/inkscape"
   xmlns:sodipodi="http://sodipodi.sourceforge.net/DTD/sodipodi-0.dtd"
   xmlns="http://www.w3.org/2000/svg"
   xmlns:svg="http://www.w3.org/2000/svg">
  <sodipodi:namedview
     id="namedview1"
     pagecolor="#ffffff"
     bordercolor="#000000"
     borderopacity="0.25"
     inkscape:showpageshadow="2"
     inkscape:pageopacity="0.0"
     inkscape:pagecheckerboard="0"
     inkscape:deskcolor="#d1d1d1"
     inkscape:document-units="px"
     inkscape:zoom="0.71891835"
     inkscape:cx="397.12437"
     inkscape:cy="561.25984"
     inkscape:window-width="1920"
     inkscape:window-height="1009"
     inkscape:window-x="-8"
     inkscape:window-y="-8"
     inkscape:window-maximized="1"
     inkscape:current-layer="layer1" />
  <defs
     id="defs1" />
  <g
     inkscape:label="Laag 1"
     inkscape:groupmode="layer"
     id="layer1">
    <path
       id="path2"
       style="fill:#b44446;stroke:none;stroke-width:3.69147;stroke-linecap:round;stroke-linejoin:round;stroke-dasharray:none"
       d="M 135.5284,4.2333312 A 131.29605,131.2323 0 0 0 9.5906481,98.360093 C 20.956122,97.171059 32.339012,95.826651 43.746534,94.555899 c 6.589063,-1.485272 14.074,1.912886 16.767349,8.212991 1.650688,4.80085 1.974948,9.93781 2.81852,14.92078 0.54498,5.57621 2.261016,10.93091 3.991188,16.17927 2.479504,4.77096 4.57405,9.75043 6.58352,14.7439 4.393568,4.73165 7.517835,10.40896 10.648791,16.00659 0.938308,1.32388 1.37857,3.21557 2.810274,4.1455 3.57089,2.47653 6.317793,5.93216 9.509008,8.85461 0.967509,-6.47963 2.169011,-12.92326 3.234166,-19.38713 1.15264,-5.06832 0.9354,-10.64323 3.86781,-15.14696 1.80866,-5.51856 3.14545,-11.21392 4.60021,-16.8455 0.81667,-4.70735 2.83322,-9.59768 7.06076,-12.21462 3.73444,-7.3807 5.73877,-15.483577 8.91244,-23.105062 1.65664,-5.918086 7.14436,-10.594399 13.33562,-10.931499 6.25394,-9.438719 12.4015,-19.050225 18.57776,-28.574846 2.54423,-4.116738 6.96226,-7.138456 11.88729,-7.275246 6.19448,-0.3193 12.29511,3.856276 14.16267,9.779911 1.27447,6.230962 1.61597,12.752612 2.31248,18.975893 0.32426,6.764485 2.6213,13.176011 4.15989,19.71197 1.80358,3.030684 3.45898,6.202745 4.86768,9.455069 3.50753,2.84475 6.29686,6.60561 9.17564,10.1172 1.7794,-0.0781 3.56611,0.10416 5.30793,0.465 6.11178,1.48273 12.33921,3.46418 17.21578,7.60426 2.84828,-2.48334 6.21101,-5.07333 10.20027,-5.39586 3.81238,-2.04228 8.30654,-3.64429 12.628,-2.33596 3.00421,-0.47182 6.01419,-1.42421 9.10565,-1.51349 2.41205,-0.22568 4.81833,0.01 7.14728,0.60512 A 131.29605,131.2323 0 0 0 135.5284,4.2341062 Z m 25.20645,93.1561318 c -3.32661,5.047977 -7.5045,9.738357 -12.86248,12.675277 -1.48006,4.17657 -2.78572,8.52335 -4.68658,12.60124 -2.46927,4.52445 -4.02516,9.63601 -7.4969,13.55125 -0.99795,2.46351 -1.43151,5.20118 -2.21774,7.76889 -1.4942,4.45315 -2.05406,9.23382 -4.20118,13.45249 -1.49427,7.87133 -2.70389,15.8413 -4.0899,23.75067 -1.03137,8.56313 -1.41805,17.19631 -2.10682,25.79476 -0.49228,5.39692 -0.0486,11.46483 -3.74846,15.90366 -4.7513,6.26803 -14.89608,7.02395 -20.602133,1.65739 -5.126901,-5.76642 -9.792153,-11.94183 -14.565929,-18.00527 -2.845986,-4.0271 -6.175014,-7.6707 -9.772298,-11.03841 -2.071792,-0.86975 -4.285068,-1.7214 -5.982752,-3.29424 -3.322208,-3.34367 -5.273472,-7.75595 -7.649138,-11.77051 -1.979784,-3.09286 -3.50951,-6.45424 -5.575412,-9.48785 -1.83055,-1.28215 -3.50145,-2.86823 -4.641382,-4.82419 -2.769354,-4.98724 -4.312534,-10.5404 -6.859073,-15.6405 -2.111844,-3.64778 -3.655768,-7.58743 -4.735994,-11.65949 -1.561346,-4.76971 -2.895028,-9.61861 -3.50982,-14.61227 -4.98976,0.56234 -9.973878,1.14284 -14.965095,1.69024 -5.297218,0.6285 -10.6586305,1.12685 -15.9937305,1.62453 a 131.29605,131.2323 0 0 0 -0.2387,7.94156 A 131.29605,131.2323 0 0 0 135.52847,266.69998 131.29605,131.2323 0 0 0 266.69999,141.17713 c -2.80773,-0.1984 -5.5875,-0.62558 -8.30341,-1.49706 -3.37566,0.60822 -6.7559,1.64195 -10.23727,1.5505 -1.56823,-0.40052 -2.71678,1.01891 -4.22579,1.22152 -0.46128,0.97192 -0.79132,2.05307 -1.31254,3.01872 -2.71815,5.98756 -9.88541,9.36974 -16.24477,7.76879 -4.0238,-1.13681 -7.446,-3.69517 -11.11376,-5.62205 -2.85479,-1.36727 -5.37416,-3.26282 -7.81781,-5.24777 -5.12233,3.59486 -12.60416,3.21145 -17.33919,-0.87559 -3.47709,-3.50896 -6.12555,-7.74748 -9.32388,-11.50725 -1.30876,-0.80455 -3.03589,-1.11062 -4.33275,-2.09342 -5.00135,-3.04937 -6.41172,-9.09928 -8.58735,-14.12281 -0.54002,-2.04859 -2.42643,-3.15367 -3.49332,-4.88179 -1.81158,-3.59866 -2.57325,-7.63161 -3.6332,-11.499069 z" />
  </g>
</svg>
